<svg version="1" xmlns="http://www.w3.org/2000/svg" width="346.667" height="346.667" viewBox="0 0 260.000000 260.000000"><path d="M0 130v130h260V0H0v130zm218.3-61.5c1.8.9 4.1 2.8 5.2 4.3 1.9 2.6 2 4.5 2.3 52.2.2 47.7.2 49.6-1.7 52.7-1.1 1.8-3.2 4-4.8 5-2.6 1.7-7.5 1.8-88.8 1.8s-86.2-.1-88.8-1.8c-1.6-1-3.7-3.2-4.7-5-1.9-3.1-2-5.4-2-51.7 0-45.1.1-48.8 1.8-51.9 1-1.9 3.4-4.3 5.3-5.3 3.2-1.7 8-1.8 88.2-1.8 74.2 0 85.3.2 88 1.5z"/><path d="M45.7 77.8c-1.5 1.7-1.7 6.4-1.7 47.6 0 29.6.4 46.4 1 47.7 1 1.9 3.1 1.9 85.5 1.9s84.5 0 85.5-1.9c.6-1.3 1-18.1 1-47.9 0-43.2-.1-46-1.8-47.5-1.7-1.6-9-1.7-84.9-1.7-79.1 0-83.1.1-84.6 1.8zm44.4 27.8l9.2 11.6 2.6-3.3c1.4-1.9 5.5-7 9.1-11.4l6.6-8 9.2-.3 9.2-.3V157h-19l-.2-17.1-.3-17.1-8.4 10.6c-6 7.6-8.7 10.3-9.6 9.6-.6-.5-4.7-5.5-9.1-11l-7.9-10-.3 17.5L81 157H62v-30.8c0-17 .3-31.2.7-31.5.3-.4 4.6-.7 9.4-.7h8.7l9.3 11.6zm96.7 4.6l.3 15.7 9.1.3 9.1.3-11.8 13c-6.4 7.1-12.7 14.1-14 15.3l-2.2 2.4-13.4-14.7c-7.4-8.1-13.5-15.1-13.7-15.6-.2-.5 3.7-.9 8.7-.9h9.1V93.9l9.3.3 9.2.3.3 15.7z"/></svg>