<svg xmlns="http://www.w3.org/2000/svg" width="101" height="25" viewBox="0 0 101 25">
    <g fill="#95A5A6" fill-rule="nonzero">
        <path d="M47.733 14.753L46.43 18.37c0 .146-.145.146-.145.146h-2.025c-.145 0-.145 0-.145-.146 1.157-3.037 2.893-8.244 4.195-11.716 0-.144.145-.434.145-1.157 0-.145 0-.145.145-.145h2.748c.145-.144.145 0 .145 0 1.445 4.195 3.181 8.68 4.628 12.874 0 .145 0 .145-.144.145h-2.315c-.145 0-.145 0-.145-.145l-1.302-3.616h-4.483v.144zm4.05-2.024c-.434-1.302-1.447-4.05-1.736-5.497-.29 1.302-1.157 3.616-1.736 5.497h3.471zm5.641.867c0-2.892 2.17-5.207 5.64-5.207.435 0 .87 0 1.159.145v-4.34c0-.144 0-.144.144-.144h2.17c.144 0 .144 0 .144.145V17.357c0 .145 0 .145-.145.145-1.302.578-2.748 1.013-4.05 1.013-3.038.144-5.062-1.447-5.062-4.919zm6.653-3.037c-.29-.145-.723-.145-1.157-.145-1.88 0-3.037 1.158-3.037 3.182 0 2.314 1.301 3.183 2.893 3.183.434 0 1.012-.146 1.447-.146V10.56h-.146zm14.754 2.893c0 3.182-2.025 5.207-4.918 5.207-3.47 0-4.917-2.603-4.917-5.063 0-3.037 2.024-5.062 5.062-5.062 3.037-.145 4.773 2.17 4.773 4.918zm-7.376 0c0 2.025.867 3.327 2.458 3.327 1.302 0 2.315-.869 2.315-3.327 0-1.88-.723-3.327-2.46-3.327-1.302.144-2.313 1.302-2.313 3.327zM83.17 4.195c.144 0 .144 0 .144.144v4.629a5.811 5.811 0 0 1 2.17-.434c2.748 0 4.484 2.025 4.484 4.629 0 3.47-2.749 5.64-5.931 5.64-1.012 0-2.024-.144-3.037-.434-.144 0-.144-.144-.144-.144V4.34c0-.144 0-.144.144-.144h2.17zm1.88 6.219c-.578 0-1.157.145-1.59.29v5.93c.289.145.722.145 1.156.145 1.446 0 3.182-1.157 3.182-3.472-.145-1.88-1.302-2.893-2.748-2.893zm9.547 3.616c0 1.592 1.011 2.603 3.037 2.603.723 0 1.59-.144 2.46-.433 0 0 .143 0 .143.145v1.59c0 .145 0 .145-.144.29-.723.434-1.736.578-3.038.578-3.616 0-5.063-2.458-5.063-5.063 0-2.892 1.736-5.206 4.775-5.206 3.037 0 4.193 2.314 4.193 4.194 0 .868-.144 1.302-.144 1.302h-6.219zm3.181-1.591c.723 0 .869-.144.869-.144v-.29c0-.578-.434-1.88-2.026-1.88-1.3 0-2.024 1.012-2.17 2.314h3.327zM17.213 0l10.125 24.155V0H17.213zM0 0v24.155L10.125 0H0zm9.257 19.238h4.629l2.025 4.917h4.194L13.596 8.823 9.257 19.238z"/>
    </g>
</svg>
