<svg xmlns="http://www.w3.org/2000/svg" width="80" height="25" viewBox="0 0 80 25">
    <path fill="#95A5A6" fill-rule="nonzero" d="M42.163 6.228c0 .893-.725 1.613-1.625 1.613s-1.624-.72-1.624-1.613a1.6 1.6 0 0 1 1.624-1.613c.925.025 1.625.745 1.625 1.613zm-6.698 3.25v.398s-.775-.993-2.424-.993c-2.724 0-4.848 2.06-4.848 4.913 0 2.83 2.099 4.913 4.848 4.913 1.674 0 2.424-1.017 2.424-1.017v.422c0 .198.15.347.35.347h2.024v-9.33h-2.024c-.2 0-.35.174-.35.348zm0 5.98c-.375.547-1.125 1.018-2.024 1.018-1.6 0-2.824-.992-2.824-2.68 0-1.687 1.224-2.68 2.824-2.68.874 0 1.674.497 2.024 1.018v3.325zm3.874-6.327h2.399v9.33h-2.4v-9.33zm35.838-.248c-1.65 0-2.425.993-2.425.993V4.64h-2.399v13.821h2.025c.2 0 .35-.173.35-.347v-.422s.774 1.017 2.424 1.017c2.724 0 4.848-2.084 4.848-4.913 0-2.828-2.124-4.913-4.823-4.913zm-.4 7.568c-.925 0-1.65-.471-2.025-1.017v-3.325c.375-.496 1.175-1.017 2.025-1.017 1.6 0 2.824.992 2.824 2.68 0 1.687-1.225 2.68-2.824 2.68zm-5.673-3.523v5.558h-2.4v-5.285c0-1.539-.5-2.159-1.849-2.159-.725 0-1.474.372-1.95.918v6.501h-2.398v-9.33h1.899c.2 0 .35.174.35.348v.397c.7-.72 1.624-.993 2.549-.993 1.05 0 1.924.298 2.624.894.85.694 1.175 1.588 1.175 3.15zm-14.42-4.045c-1.65 0-2.425.993-2.425.993V4.64H49.86v13.821h2.025c.2 0 .35-.173.35-.347v-.422s.774 1.017 2.424 1.017c2.724 0 4.848-2.084 4.848-4.913.025-2.828-2.1-4.913-4.823-4.913zm-.4 7.568c-.925 0-1.65-.471-2.025-1.017v-3.325c.375-.496 1.175-1.017 2.025-1.017 1.6 0 2.824.992 2.824 2.68 0 1.687-1.225 2.68-2.824 2.68zm-6.498-7.568c.725 0 1.1.124 1.1.124v2.209s-2-.67-3.25.744v6.526h-2.399V9.131h2.025c.2 0 .35.174.35.348v.397c.45-.521 1.424-.993 2.174-.993zm-24.917 8.735c-.125-.298-.25-.62-.375-.894-.2-.446-.4-.868-.574-1.265l-.025-.025a258.221 258.221 0 0 0-5.523-11.216l-.075-.149c-.2-.372-.4-.769-.6-1.166-.25-.446-.5-.918-.9-1.365C13.997.546 12.847 0 11.623 0c-1.25 0-2.374.546-3.199 1.489-.375.446-.65.918-.9 1.365-.2.397-.4.794-.6 1.166l-.074.149a290.492 290.492 0 0 0-5.523 11.215l-.025.05c-.175.397-.375.819-.575 1.266-.125.272-.25.57-.375.893-.325.918-.425 1.786-.3 2.68a5.28 5.28 0 0 0 3.249 4.119c.65.273 1.325.397 2.024.397a6.635 6.635 0 0 0 3.149-.893c1.025-.571 2-1.39 3.1-2.581 1.099 1.19 2.098 2.01 3.098 2.58a6.635 6.635 0 0 0 3.15.894c.699 0 1.399-.124 2.023-.397a5.27 5.27 0 0 0 3.25-4.12c.2-.868.1-1.736-.226-2.654zm-11.27 1.29c-1.35-1.687-2.225-3.275-2.525-4.615-.125-.571-.15-1.067-.075-1.514.05-.397.2-.744.4-1.042.475-.67 1.274-1.092 2.2-1.092.924 0 1.749.397 2.198 1.092.2.298.35.645.4 1.042.075.447.05.968-.075 1.514-.3 1.315-1.174 2.903-2.524 4.615zm9.97 1.166a3.692 3.692 0 0 1-2.273 2.903c-.6.248-1.25.323-1.9.248a4.939 4.939 0 0 1-1.9-.645c-.899-.496-1.799-1.265-2.848-2.407 1.65-2.01 2.649-3.846 3.024-5.483.175-.77.2-1.464.125-2.11a4.01 4.01 0 0 0-.675-1.687c-.775-1.116-2.074-1.762-3.524-1.762-1.45 0-2.749.67-3.524 1.762A4.01 4.01 0 0 0 7.4 12.58c-.1.646-.075 1.365.125 2.11.374 1.637 1.4 3.498 3.024 5.508-1.025 1.142-1.95 1.91-2.85 2.407-.65.372-1.274.57-1.899.645a4.024 4.024 0 0 1-1.9-.248A3.692 3.692 0 0 1 1.628 20.1a4.08 4.08 0 0 1 .224-1.935c.075-.249.2-.497.325-.795.175-.397.375-.818.575-1.24l.025-.05A270.45 270.45 0 0 1 8.274 4.938l.075-.149c.2-.372.4-.77.6-1.141.2-.397.425-.77.7-1.092a2.62 2.62 0 0 1 2-.918 2.62 2.62 0 0 1 1.998.918c.275.322.5.695.7 1.092.2.372.4.769.6 1.141l.075.149a328.16 328.16 0 0 1 5.473 11.166v.025c.2.397.375.843.575 1.24.125.298.25.546.325.795.2.645.275 1.265.175 1.91z"/>
</svg>
