<svg xmlns="http://www.w3.org/2000/svg" width="23" height="28" viewBox="0 0 23 28">
    <path fill="#95A5A6" fill-rule="nonzero" d="M22.395 21.208a14.68 14.68 0 0 1-1.452 2.61c-.763 1.089-1.388 1.842-1.87 2.26-.746.687-1.546 1.039-2.403 1.059-.615 0-1.357-.175-2.22-.53-.866-.354-1.662-.529-2.39-.529-.763 0-1.582.175-2.458.529-.877.355-1.583.54-2.123.558-.822.035-1.64-.327-2.458-1.087-.522-.455-1.174-1.235-1.956-2.34-.838-1.18-1.528-2.548-2.068-4.108-.579-1.685-.869-3.317-.869-4.896 0-1.81.391-3.37 1.175-4.678a6.888 6.888 0 0 1 2.459-2.488 6.615 6.615 0 0 1 3.324-.938c.653 0 1.508.202 2.572.599 1.06.397 1.741.6 2.04.6.223 0 .979-.237 2.261-.707 1.213-.436 2.236-.617 3.074-.546 2.272.183 3.979 1.079 5.114 2.692-2.032 1.231-3.037 2.955-3.017 5.167.018 1.723.643 3.157 1.872 4.295a6.15 6.15 0 0 0 1.87 1.227c-.15.435-.309.851-.477 1.251zM17.185.707c0 1.35-.493 2.61-1.477 3.778-1.186 1.387-2.622 2.189-4.178 2.062a4.204 4.204 0 0 1-.031-.511c0-1.297.564-2.684 1.566-3.818.5-.575 1.137-1.052 1.908-1.433.77-.375 1.499-.583 2.184-.619.02.181.028.362.028.54z"/>
</svg>
