<svg xmlns="http://www.w3.org/2000/svg" width="105" height="21" viewBox="0 0 105 21">
    <g fill="#95A5A6" fill-rule="nonzero">
        <path d="M12.185 3.889L6.093 7.778l6.092 3.889-6.092 3.889L0 11.634l6.093-3.889L0 3.89 6.093 0l6.092 3.889zM6.06 16.787l6.093-3.889 6.092 3.889-6.092 3.889-6.093-3.889zm6.125-5.153l6.093-3.889-6.093-3.856L18.245 0l6.093 3.889-6.093 3.889 6.093 3.889-6.093 3.889-6.06-3.922zM29.102 3.889h4.926c3.143 0 5.736 1.815 5.736 5.963v.875c0 4.18-2.43 6.06-5.639 6.06h-5.023V3.889zm2.754 2.333v8.2h2.107c1.782 0 2.981-1.167 2.981-3.76v-.68c0-2.593-1.263-3.76-3.078-3.76h-2.01zm9.366.13h2.204l.356 2.43c.422-1.652 1.491-2.527 3.436-2.527h.68v2.787h-1.134c-2.236 0-2.787.777-2.787 2.981v4.796h-2.722V6.352h-.033zm7.227 5.444v-.291c0-3.5 2.236-5.412 5.282-5.412 3.112 0 5.283 1.912 5.283 5.412v.291c0 3.435-2.107 5.283-5.283 5.283-3.37-.033-5.282-1.848-5.282-5.283zm7.778-.032v-.26c0-1.944-.972-3.11-2.528-3.11-1.523 0-2.528 1.069-2.528 3.11v.26c0 1.88.973 2.949 2.528 2.949 1.556-.032 2.528-1.07 2.528-2.95zm4.213-5.412h2.268l.26 1.977c.55-1.329 1.717-2.236 3.435-2.236 2.657 0 4.407 1.912 4.407 5.444v.292c0 3.435-1.944 5.25-4.407 5.25-1.653 0-2.787-.746-3.338-1.945v5.283h-2.658l.033-14.065zm7.616 5.412v-.227c0-2.074-1.07-3.111-2.496-3.111-1.523 0-2.528 1.167-2.528 3.111v.194c0 1.848.973 3.014 2.496 3.014 1.555-.032 2.528-1.037 2.528-2.981zm6.773 3.111l-.227 1.912h-2.333V2.852h2.657v5.347c.583-1.361 1.75-2.106 3.403-2.106 2.495.032 4.342 1.75 4.342 5.217v.324c0 3.468-1.75 5.445-4.407 5.445-1.75-.033-2.884-.843-3.435-2.204zm5.055-3.24v-.26c0-1.912-1.037-2.981-2.495-2.981-1.49 0-2.528 1.199-2.528 3.013v.227c0 1.945 1.005 3.079 2.495 3.079 1.588 0 2.528-1.005 2.528-3.079zm3.954.161v-.291c0-3.5 2.236-5.412 5.282-5.412 3.111 0 5.283 1.912 5.283 5.412v.291c0 3.435-2.14 5.283-5.283 5.283-3.37-.033-5.282-1.848-5.282-5.283zm7.81-.032v-.26c0-1.944-.972-3.11-2.528-3.11-1.523 0-2.527 1.069-2.527 3.11v.26c0 1.88.972 2.949 2.527 2.949 1.556-.032 2.528-1.07 2.528-2.95zm6.32-.389l-3.662-5.023h3.143l2.107 3.143 2.138-3.143h3.112l-3.727 4.99L105 16.788h-3.079l-2.398-3.468-2.333 3.468H93.98l3.987-5.412z"/>
    </g>
</svg>
