<svg xmlns="http://www.w3.org/2000/svg" width="74" height="25" viewBox="0 0 74 25">
    <g fill="#95A5A6" fill-rule="nonzero">
        <path d="M31.438 12.814c0 3.469-2.713 6.025-6.043 6.025s-6.043-2.556-6.043-6.025c0-3.493 2.713-6.024 6.043-6.024s6.043 2.531 6.043 6.024zm-2.645 0c0-2.167-1.573-3.65-3.398-3.65-1.825 0-3.398 1.483-3.398 3.65 0 2.146 1.573 3.65 3.398 3.65 1.825 0 3.398-1.507 3.398-3.65zM44.475 12.814c0 3.469-2.713 6.025-6.043 6.025s-6.043-2.556-6.043-6.025c0-3.49 2.713-6.024 6.043-6.024s6.043 2.531 6.043 6.024zm-2.645 0c0-2.167-1.573-3.65-3.398-3.65-1.825 0-3.398 1.483-3.398 3.65 0 2.146 1.573 3.65 3.398 3.65 1.825 0 3.398-1.507 3.398-3.65zM56.97 7.154V17.97c0 4.45-2.625 6.266-5.726 6.266-2.92 0-4.677-1.953-5.34-3.55l2.303-.958c.41.98 1.415 2.137 3.034 2.137 1.985 0 3.216-1.225 3.216-3.53v-.867h-.093c-.592.73-1.732 1.369-3.172 1.369-3.012 0-5.772-2.624-5.772-6 0-3.4 2.76-6.046 5.772-6.046 1.437 0 2.578.638 3.172 1.347h.093v-.98h2.512v-.003zm-2.326 5.682c0-2.121-1.415-3.672-3.216-3.672-1.825 0-3.354 1.55-3.354 3.672 0 2.1 1.53 3.629 3.354 3.629 1.801 0 3.216-1.53 3.216-3.629zM61.111.815v17.654h-2.58V.815zM71.166 14.797l2.053 1.369c-.662.98-2.26 2.67-5.019 2.67-3.422 0-5.978-2.646-5.978-6.024 0-3.583 2.578-6.025 5.682-6.025 3.126 0 4.655 2.488 5.155 3.833l.274.684-8.053 3.336c.617 1.208 1.576 1.825 2.92 1.825 1.347 0 2.281-.663 2.966-1.668zm-6.32-2.167l5.383-2.236c-.296-.752-1.187-1.276-2.235-1.276-1.345 0-3.216 1.187-3.148 3.512zM9.585 11.247V8.691h8.613c.084.446.127.973.127 1.543 0 1.918-.524 4.289-2.213 5.978-1.644 1.711-3.743 2.624-6.524 2.624-5.155 0-9.49-4.2-9.49-9.354 0-5.155 4.335-9.354 9.49-9.354 2.852 0 4.883 1.119 6.41 2.577L14.194 4.51c-1.094-1.027-2.577-1.826-4.61-1.826-3.764 0-6.708 3.034-6.708 6.799 0 3.764 2.944 6.798 6.709 6.798 2.442 0 3.832-.98 4.723-1.871.723-.723 1.198-1.755 1.385-3.165l-6.108.003z"/>
    </g>
</svg>
