<svg xmlns="http://www.w3.org/2000/svg" width="97" height="24" viewBox="0 0 97 24">
    <g fill="#95A5A6" fill-rule="nonzero">
        <path d="M15.3 14.33c0 .382-.312.728-.727.728H9.588a.731.731 0 0 1-.726-.727V9.346c0-.38.311-.727.726-.727h4.985c.38 0 .727.312.727.727v4.985zm4.292 3.74c0 .692-.554 1.245-1.246 1.245H5.85a1.241 1.241 0 0 1-1.246-1.246V5.573c0-.692.554-1.246 1.246-1.246h12.496c.692 0 1.246.554 1.246 1.246V18.07zM19.938.034H4.223C2.077.035.312 1.8.312 3.98v15.715c0 2.146 1.765 3.946 3.946 3.946h15.715c2.146 0 3.946-1.765 3.946-3.946V3.981C23.885 1.8 22.12.035 19.94.035zM34.788 19.558a5.388 5.388 0 0 1-3.703-1.489c-.831-.83-1.316-1.938-1.316-3.08h1.42c0 .761.311 1.523.9 2.076.692.693 1.661 1.073 2.7 1.073 1.973 0 3.565-1.384 3.565-3.08 0-1.281-.692-2.285-4.12-3.081-1.384-.312-2.319-.762-2.976-1.35-.658-.658-1.004-1.523-1.004-2.63 0-2.216 1.973-4.016 4.43-4.016 1.178 0 2.285.415 3.116 1.142.865.762 1.35 1.765 1.35 2.873h-1.42c0-1.42-1.35-2.596-3.045-2.596-1.627 0-3.012 1.177-3.012 2.596 0 1.28.45 2.042 2.873 2.596 2.596.589 5.227 1.593 5.227 4.466 0 1.211-.52 2.354-1.488 3.219-.9.83-2.147 1.28-3.497 1.28zM47.25 9.554c-2.527 0-4.362 1.904-4.362 4.43 0 2.493 1.87 4.328 4.362 4.328 2.423 0 4.292-1.974 4.292-4.362s-1.869-4.396-4.292-4.396zm4.223 14.054v-6.196h-.035c-.934 1.419-2.492 2.146-4.153 2.146-3.22 0-5.747-2.423-5.747-5.643 0-3.219 2.597-5.607 5.747-5.607 1.661 0 3.253.727 4.153 2.146h.035v-1.87h1.385v15.024h-1.385zM72.485 9.554c-2.527 0-4.362 1.904-4.362 4.43 0 2.493 1.87 4.328 4.362 4.328 2.423 0 4.292-1.974 4.292-4.362-.035-2.388-1.87-4.396-4.292-4.396zm4.188 9.727v-1.87h-.035c-.934 1.42-2.492 2.147-4.153 2.147-3.22 0-5.747-2.389-5.747-5.643 0-3.219 2.597-5.607 5.747-5.607 1.696 0 3.253.692 4.153 2.146h.035v-1.87h1.35v10.697h-1.35zM82.142 13.015v6.266h-1.384V8.585h1.384v1.557h.035c.588-1.384 1.627-1.73 3.011-1.834v1.454c-1.869.138-3.046 1.35-3.046 3.253M91.315 9.554c-2.146 0-3.842 1.558-4.153 3.67h8.342c-.346-2.112-2.042-3.67-4.189-3.67m5.573 4.88h-9.726c.103 2.112 2.042 3.878 4.153 3.878 1.627 0 3.254-.935 3.843-2.527h1.454c-.797 2.215-2.908 3.738-5.262 3.738-3.08 0-5.573-2.527-5.573-5.608 0-3.046 2.492-5.642 5.538-5.642 3.116 0 5.608 2.63 5.608 5.746 0 .139-.035.277-.035.416M63.45 19.28v-1.66h-.035c-.623 1.315-2.007 1.938-3.427 1.938-1.384 0-2.803-.485-3.703-1.627-.762-.97-.935-2.25-.935-3.462V8.55h1.385v5.92c0 2.215.796 3.842 3.253 3.842.9 0 1.627-.243 2.285-.866.935-.9 1.108-1.973 1.108-3.22V8.55h1.384v10.73H63.45z"/>
    </g>
</svg>
